<svg id="quotes" xmlns="http://www.w3.org/2000/svg" xmlns:xlink="http://www.w3.org/1999/xlink" width="72" height="54" viewBox="0 0 72 54">
  <defs>
    <linearGradient id="linear-gradient" x1="0.5" x2="0.5" y2="1" gradientUnits="objectBoundingBox">
      <stop offset="0" stop-color="#2ab7ef"/>
      <stop offset="1" stop-color="#1ea4e1"/>
    </linearGradient>
  </defs>
  <path id="Shape" d="M42,54h0l-2.952-6.378a20.605,20.605,0,0,0,8.817-7.3,22.283,22.283,0,0,0,4.323-9.934A15.64,15.64,0,0,1,39,14.937a15.116,15.116,0,0,1,1.334-6.361,13.856,13.856,0,0,1,3.523-4.687A15.519,15.519,0,0,1,48.85.992,17.013,17.013,0,0,1,54.6,0a17.292,17.292,0,0,1,6.535,1.267,16.713,16.713,0,0,1,5.558,3.68,17.382,17.382,0,0,1,3.862,5.913A21.447,21.447,0,0,1,72,18.825a33.107,33.107,0,0,1-2.111,11.494,37.011,37.011,0,0,1-6.018,10.52A37.391,37.391,0,0,1,42,54ZM3,54H3L.048,47.622a20.6,20.6,0,0,0,8.818-7.3,22.276,22.276,0,0,0,4.322-9.934A15.64,15.64,0,0,1,0,14.937,15.118,15.118,0,0,1,1.334,8.576,13.856,13.856,0,0,1,4.857,3.889,15.518,15.518,0,0,1,9.85.992,17.014,17.014,0,0,1,15.6,0a17.292,17.292,0,0,1,6.535,1.267,16.713,16.713,0,0,1,5.558,3.68,17.382,17.382,0,0,1,3.862,5.913A21.447,21.447,0,0,1,33,18.825,33.1,33.1,0,0,1,30.89,30.319a37.012,37.012,0,0,1-6.018,10.52,37.5,37.5,0,0,1-9.454,8.307A37.391,37.391,0,0,1,3,54Z" fill="url(#linear-gradient)"/>
</svg>
